<svg xmlns="http://www.w3.org/2000/svg" width="16" height="16" viewBox="0 0 16 16">
  <path d="M5.5 3C6.1 2.4 7 2 8.2 2c1.3 0 2.3.4 3 1.1.5.5.8 1.2.8 1.9h-2c0-.3-.1-.6-.4-.8-.3-.3-.8-.4-1.4-.4-.6 0-1 .1-1.3.3-.3.2-.4.5-.4.8 0 .3.1.5.3.7.1.1.3.2.5.4H2V7h12v-1h-4.3c-.4-.2-.9-.4-1.5-.5" fill="#AFB1B3"/>
  <rect x="2" y="7.5" width="12" height="1.5" rx="0.5" fill="#AFB1B3"/>
  <path d="M10.3 10c.1.2.2.5.2.8 0 .8-.3 1.5-1 2-.7.5-1.6.7-2.8.7-1.2 0-2.2-.3-2.9-1-.4-.4-.7-.9-.8-1.5h2.1c.1.3.2.5.5.7.3.2.7.3 1.2.3.6 0 1-.1 1.3-.3.3-.2.4-.5.4-.8 0-.3-.1-.5-.3-.7 0 0-.1-.1-.2-.1H10.3z" fill="#AFB1B3"/>
</svg>
